<svg width="462" height="513" viewBox="0 0 462 513" fill="none" xmlns="http://www.w3.org/2000/svg">
<path d="M212.385 322.424C213.267 330.956 220.47 337.307 228.862 337.307C229.433 337.307 230.008 337.278 230.587 337.219C239.698 336.277 246.322 328.127 245.38 319.016L237.73 245.004C236.788 235.893 228.635 229.278 219.528 230.211C210.417 231.153 203.793 239.303 204.735 248.414L212.385 322.424Z" fill="#0057FF"/>
<path d="M316.181 337.219C316.761 337.278 317.336 337.307 317.906 337.307C326.301 337.307 333.501 330.956 334.384 322.424L342.031 248.411C342.973 239.298 336.35 231.149 327.238 230.209C318.121 229.278 309.976 235.893 309.034 245.001L301.387 319.014C300.445 328.127 307.068 336.277 316.181 337.219Z" fill="#0057FF"/>
<path d="M187.756 409.312C159.447 409.312 136.417 432.342 136.417 460.65C136.417 488.966 159.447 512.002 187.756 512.002C216.065 512.002 239.097 488.966 239.097 460.65C239.097 432.342 216.065 409.312 187.756 409.312ZM187.756 478.828C177.738 478.828 169.589 470.673 169.589 460.648C169.589 450.63 177.738 442.481 187.756 442.481C197.774 442.481 205.925 450.63 205.925 460.648C205.925 470.673 197.774 478.828 187.756 478.828Z" fill="#0057FF"/>
<path d="M359.012 409.312C330.704 409.312 307.672 432.342 307.672 460.65C307.672 488.966 330.701 512.002 359.012 512.002C387.323 512.002 410.358 488.966 410.358 460.65C410.358 432.342 387.323 409.312 359.012 409.312ZM359.012 478.828C348.995 478.828 340.843 470.673 340.843 460.648C340.843 450.63 348.995 442.481 359.012 442.481C369.032 442.481 377.186 450.63 377.186 460.648C377.186 470.673 369.035 478.828 359.012 478.828Z" fill="#0057FF"/>
<path d="M458.22 174.881C455.08 170.819 450.234 168.439 445.099 168.439H114.5L100.616 115.053C98.7144 107.744 92.1155 102.642 84.5634 102.642H16.5858C7.42602 102.642 0 110.068 0 119.228C0 128.388 7.42602 135.814 16.5858 135.814H71.7392L85.5099 188.769C85.5784 189.065 85.6558 189.359 85.7399 189.649L136.95 386.569C138.852 393.878 145.451 398.98 153.003 398.98H393.772C401.324 398.98 407.923 393.878 409.825 386.569L461.152 189.198C462.444 184.233 461.36 178.946 458.22 174.881ZM380.948 365.813H165.827L123.127 201.613H423.651L380.948 365.813Z" fill="#0057FF"/>
<path d="M208.274 116.877C211.511 120.112 215.755 121.731 219.999 121.731C224.245 121.731 228.491 120.11 231.731 116.87C238.206 110.391 238.203 99.8887 231.724 93.4136L179.563 41.2766C173.083 34.8015 162.583 34.8037 156.106 41.281C149.631 47.7605 149.633 58.2627 156.11 64.7378L208.274 116.877Z" fill="#0057FF"/>
<path d="M326.847 121.729C331.093 121.729 335.341 120.108 338.581 116.866L390.665 64.7356C397.14 58.2561 397.133 47.7539 390.654 41.281C384.174 34.8059 373.672 34.8126 367.199 41.2921L315.115 93.4225C308.64 99.902 308.647 110.404 315.126 116.879C318.364 120.112 322.605 121.729 326.847 121.729Z" fill="#0057FF"/>
<path d="M273.401 106.837C273.403 106.837 273.403 106.837 273.405 106.837C282.563 106.837 289.989 99.4132 289.991 90.2556L290.009 16.5902C290.011 7.43045 282.587 0.00221144 273.427 0C273.425 0 273.425 0 273.425 0C264.265 0 256.839 7.42382 256.837 16.5814L256.819 90.2468C256.817 99.4066 264.241 106.835 273.401 106.837Z" fill="#0057FF"/>
</svg>
