<svg width="31" height="26" viewBox="0 0 31 26" fill="none" xmlns="http://www.w3.org/2000/svg">
<path fill-rule="evenodd" clip-rule="evenodd" d="M21.8976 20.302C23.837 20.06 25.7032 19.3434 27.5089 18.2543L27.5376 18.2352L27.5694 18.2193C29.3305 17.2989 30.7158 18.9645 29.7254 20.4485C28.7669 22.3306 24.9389 24.3051 23.1651 25.235L23.1141 25.2605L23.06 25.2828C21.6046 25.8592 19.9805 25.7668 18.4773 25.4356C17.8213 25.3337 17.1684 25.2095 16.5156 25.0821C14.3277 24.6586 11.4807 23.9866 9.29603 24.6108L7.81836 25.0312L8.26739 16.1715L9.06673 15.9773C10.8629 15.5442 12.6781 15.334 14.522 15.541C15.8946 15.6938 17.1238 16.0633 18.4295 16.4868C19.5856 16.8594 20.6874 17.2034 21.904 17.3371L22.4868 17.4008L22.7575 17.9199C22.974 18.3339 23.0409 18.8052 22.8912 19.2574C22.7224 19.7574 22.3562 20.0886 21.9008 20.302H21.8976ZM9.3215 17.0473C15.5506 15.541 17.627 17.9709 21.7798 18.4326C22.2033 19.2447 21.0632 19.6237 19.5569 19.5632L17.299 18.9804C15.3309 18.5059 14.5316 20.0727 17.0793 21.0568C20.9486 22.0631 24.5982 21.302 28.079 19.2001C28.8911 18.7766 29.1586 19.3689 28.77 19.8912C28.2159 21.1205 25.7351 22.6459 22.6492 24.2637C21.5696 24.6904 20.2416 24.7063 18.6779 24.356C15.3373 23.8401 11.8915 22.7287 8.9903 23.5535L9.31832 17.0505L9.3215 17.0473Z" fill="#0057FF"/>
<path fill-rule="evenodd" clip-rule="evenodd" d="M1.07322 15.7639L7.44248 16.1079L6.86288 25.1458L0 25.0471L1.07004 15.7639H1.07322ZM3.91391 20.9899C4.82471 20.9899 5.56355 21.7287 5.56355 22.6395C5.56355 23.458 4.96802 24.1363 4.18779 24.2669L6.07946 24.2924L6.55397 16.8976L1.81842 16.6429L0.94265 24.2191L3.59545 24.2573C2.8375 24.1076 2.26427 23.4389 2.26427 22.6395C2.26427 21.7287 3.00311 20.9899 3.91391 20.9899ZM3.91391 21.7606C4.39797 21.7606 4.79287 22.1555 4.79287 22.6395C4.79287 23.1236 4.39797 23.5185 3.91391 23.5185C3.42985 23.5185 3.03495 23.1236 3.03495 22.6395C3.03495 22.1555 3.42985 21.7606 3.91391 21.7606Z" fill="#0057FF"/>
<path fill-rule="evenodd" clip-rule="evenodd" d="M21.7669 0C26.0311 0 29.4896 3.45851 29.4896 7.72273C29.4896 11.9869 26.0311 15.4455 21.7669 15.4455C17.5027 15.4455 14.0442 11.9869 14.0442 7.72273C14.0442 3.45851 17.5027 0 21.7669 0ZM21.7669 0.77068C25.6044 0.77068 28.719 3.88206 28.719 7.72273C28.719 11.5602 25.6076 14.6748 21.7669 14.6748C17.9294 14.6748 14.8149 11.5634 14.8149 7.72273C14.8149 3.88525 17.9263 0.77068 21.7669 0.77068Z" fill="#0057FF"/>
<path d="M24.6207 8.59532C24.6207 9.0762 24.5124 9.48702 24.2927 9.83096C24.0761 10.1749 23.7513 10.4329 23.3246 10.608C22.8978 10.7832 22.3787 10.8723 21.7673 10.8723C21.1845 10.8723 20.6845 10.7768 20.2673 10.5857C19.8501 10.3946 19.5444 10.1558 19.3438 9.86917C19.1463 9.58256 19.0476 9.29594 19.0476 9.00614C19.0476 8.81506 19.1113 8.64946 19.2387 8.51571C19.3661 8.37877 19.5253 8.31189 19.7196 8.31189C19.8915 8.31189 20.0189 8.35647 20.1113 8.44564C20.2036 8.53481 20.2896 8.65901 20.3724 8.82143C20.538 9.13034 20.7386 9.36282 20.9711 9.51568C21.2036 9.67173 21.5189 9.74816 21.9201 9.74816C22.245 9.74816 22.5125 9.66854 22.7195 9.51568C22.9297 9.35963 23.0316 9.18129 23.0316 8.98066C23.0316 8.67175 22.9233 8.45201 22.7067 8.30871C22.4902 8.16858 22.1335 8.03483 21.6367 7.90426C21.0762 7.75458 20.6208 7.59853 20.2705 7.43612C19.9202 7.2737 19.6399 7.05396 19.4298 6.78645C19.2196 6.51894 19.1145 6.18774 19.1145 5.79603C19.1145 5.44572 19.2132 5.11452 19.4043 4.80243C19.5985 4.49033 19.8852 4.24512 20.2673 4.05722C20.6463 3.87252 21.1017 3.77698 21.6399 3.77698C22.0603 3.77698 22.4392 3.82156 22.7736 3.9171C23.108 4.00946 23.3883 4.13684 23.6144 4.29289C23.8405 4.45212 24.0093 4.62727 24.1271 4.81835C24.2449 5.00943 24.3054 5.19414 24.3054 5.38203C24.3054 5.57948 24.2417 5.74508 24.1175 5.87246C23.9933 5.99985 23.815 6.06354 23.5857 6.06354C23.4201 6.06354 23.2768 6.01259 23.159 5.91068C23.0443 5.80877 22.9074 5.65591 22.7577 5.45209C22.6367 5.28331 22.4902 5.14318 22.3246 5.04128C22.159 4.93937 21.9329 4.88841 21.6463 4.88841C21.3533 4.88841 21.1081 4.95529 20.9138 5.08904C20.7195 5.2228 20.624 5.39158 20.624 5.59222C20.624 5.77692 20.6941 5.9266 20.8374 6.04125C20.9807 6.15908 21.1718 6.2578 21.4138 6.33424C21.6558 6.41067 21.9902 6.50302 22.4138 6.61448C22.9169 6.74505 23.3309 6.90428 23.6494 7.08899C23.9679 7.2737 24.2099 7.48707 24.3755 7.73866C24.5411 7.98706 24.6239 8.27049 24.6239 8.59214L24.6207 8.59532Z" fill="#0057FF"/>
<path fill-rule="evenodd" clip-rule="evenodd" d="M21.853 3.1496C22.0951 3.1496 22.2893 3.34704 22.2893 3.58589V10.9806C22.2893 11.2226 22.0919 11.4169 21.853 11.4169C21.6142 11.4169 21.4167 11.2194 21.4167 10.9806V3.58589C21.4167 3.34386 21.6142 3.1496 21.853 3.1496Z" fill="#0057FF"/>
</svg>
